<mxfile host="app.diagrams.net" agent="Mozilla/5.0 (Windows NT 10.0; Win64; x64) AppleWebKit/537.36 (KHTML, like Gecko) Chrome/127.0.0.0 Safari/537.36" version="24.7.7">
  <diagram name="Page-1" id="faFuE_bOGzZ4QL95u3vO">
    <mxGraphModel dx="2647" dy="1640" grid="0" gridSize="10" guides="1" tooltips="1" connect="1" arrows="1" fold="1" page="1" pageScale="1" pageWidth="827" pageHeight="1169" background="none" math="0" shadow="1">
      <root>
        <mxCell id="0" />
        <mxCell id="1" parent="0" />
        <mxCell id="15tGHbZUR9IdJpPOJWv5-1" value="&lt;font style=&quot;font-size: 15px;&quot;&gt;&lt;b&gt;Flipkart()&lt;/b&gt;&lt;/font&gt;&lt;div style=&quot;font-size: 15px;&quot;&gt;&lt;font style=&quot;font-size: 15px;&quot;&gt;&lt;b&gt;Amzon()&lt;/b&gt;&lt;/font&gt;&lt;/div&gt;" style="rounded=0;whiteSpace=wrap;html=1;labelBackgroundColor=none;fillColor=#FAD9D5;strokeColor=#D0CEE2;fontColor=#1A1A1A;textShadow=0;labelBorderColor=none;" vertex="1" parent="1">
          <mxGeometry x="389" y="840.12" width="200" height="170" as="geometry" />
        </mxCell>
        <mxCell id="15tGHbZUR9IdJpPOJWv5-7" value="&lt;b&gt;&lt;font style=&quot;font-size: 20px;&quot;&gt;ECommerceSiteInterfaces&lt;/font&gt;&lt;/b&gt;" style="text;html=1;align=center;verticalAlign=middle;resizable=0;points=[];autosize=1;strokeColor=none;fillColor=none;rounded=0;labelBackgroundColor=none;fontColor=#1A1A1A;textShadow=0;labelBorderColor=none;" vertex="1" parent="1">
          <mxGeometry x="354" y="1010.12" width="270" height="40" as="geometry" />
        </mxCell>
        <mxCell id="15tGHbZUR9IdJpPOJWv5-105" style="edgeStyle=orthogonalEdgeStyle;rounded=0;orthogonalLoop=1;jettySize=auto;html=1;strokeWidth=2;" edge="1" parent="1" source="15tGHbZUR9IdJpPOJWv5-24">
          <mxGeometry relative="1" as="geometry">
            <mxPoint x="1210" y="429.6274988511029" as="targetPoint" />
          </mxGeometry>
        </mxCell>
        <mxCell id="15tGHbZUR9IdJpPOJWv5-24" value="&lt;font style=&quot;font-size: 20px;&quot;&gt;&lt;b&gt;Application-4&lt;/b&gt;&lt;/font&gt;&lt;div&gt;&lt;font style=&quot;font-size: 20px;&quot;&gt;&lt;b&gt;E-Commerce Management System&lt;/b&gt;&lt;/font&gt;&lt;/div&gt;" style="rounded=0;whiteSpace=wrap;html=1;strokeColor=#D0CEE2;fontColor=#1A1A1A;fillColor=#FAD9D5;textShadow=0;labelBorderColor=none;labelBackgroundColor=none;" vertex="1" parent="1">
          <mxGeometry x="1010" y="286" width="400" height="72" as="geometry" />
        </mxCell>
        <mxCell id="15tGHbZUR9IdJpPOJWv5-26" value="" style="strokeWidth=2;html=1;shape=mxgraph.flowchart.annotation_2;align=left;labelPosition=right;pointerEvents=1;strokeColor=#000000;fontColor=#1A1A1A;fillColor=#FAD9D5;rotation=90;textShadow=0;labelBorderColor=none;labelBackgroundColor=none;" vertex="1" parent="1">
          <mxGeometry x="1143.63" width="112" height="1441.25" as="geometry" />
        </mxCell>
        <mxCell id="15tGHbZUR9IdJpPOJWv5-27" style="edgeStyle=orthogonalEdgeStyle;rounded=0;orthogonalLoop=1;jettySize=auto;html=1;exitX=1;exitY=1;exitDx=0;exitDy=0;exitPerimeter=0;entryX=0.447;entryY=0.002;entryDx=0;entryDy=0;entryPerimeter=0;strokeColor=#000000;fontColor=#1A1A1A;strokeWidth=2;textShadow=0;labelBorderColor=none;labelBackgroundColor=none;" edge="1" parent="1" source="15tGHbZUR9IdJpPOJWv5-26" target="15tGHbZUR9IdJpPOJWv5-1">
          <mxGeometry relative="1" as="geometry" />
        </mxCell>
        <mxCell id="15tGHbZUR9IdJpPOJWv5-29" value="&lt;div style=&quot;font-size: 15px;&quot;&gt;&lt;b&gt;Category(){&lt;/b&gt;&lt;/div&gt;&lt;div style=&quot;font-size: 15px;&quot;&gt;&lt;b&gt;//Default Constructor&lt;/b&gt;&lt;/div&gt;&lt;div style=&quot;font-size: 15px;&quot;&gt;&lt;b&gt;//Displaying Some Message&lt;/b&gt;&lt;/div&gt;&lt;div style=&quot;font-size: 15px;&quot;&gt;&lt;b&gt;}&lt;/b&gt;&lt;/div&gt;&lt;div style=&quot;font-size: 15px;&quot;&gt;&lt;font style=&quot;font-size: 15px;&quot;&gt;&lt;b&gt;abstract WelcomeCategoryMessage(){&lt;/b&gt;&lt;/font&gt;&lt;/div&gt;&lt;div style=&quot;font-size: 15px;&quot;&gt;&lt;font style=&quot;font-size: 15px;&quot;&gt;&lt;b&gt;//Displaying the message Based on Category&amp;nbsp;&lt;/b&gt;&lt;/font&gt;&lt;/div&gt;&lt;div style=&quot;font-size: 15px;&quot;&gt;&lt;font style=&quot;font-size: 15px;&quot;&gt;&lt;b&gt;}&lt;/b&gt;&lt;/font&gt;&lt;/div&gt;" style="rounded=0;whiteSpace=wrap;html=1;labelBackgroundColor=none;fillColor=#FAD9D5;strokeColor=#D0CEE2;fontColor=#1A1A1A;textShadow=0;labelBorderColor=none;" vertex="1" parent="1">
          <mxGeometry x="701.5" y="842.12" width="270" height="170" as="geometry" />
        </mxCell>
        <mxCell id="15tGHbZUR9IdJpPOJWv5-30" value="&lt;b&gt;&lt;br&gt;&lt;/b&gt;&lt;div&gt;&lt;div&gt;&lt;span style=&quot;font-size: 15px;&quot;&gt;&lt;b&gt;paymentInterface(){&lt;/b&gt;&lt;/span&gt;&lt;/div&gt;&lt;div&gt;&lt;span style=&quot;font-size: 15px;&quot;&gt;&lt;b&gt;TotalAmountToBePaid()&lt;/b&gt;&lt;/span&gt;&lt;/div&gt;&lt;div&gt;&lt;span style=&quot;font-size: 15px;&quot;&gt;&lt;b&gt;MakePayment()&lt;/b&gt;&lt;/span&gt;&lt;/div&gt;&lt;div&gt;&lt;span style=&quot;font-size: 15px;&quot;&gt;&lt;b&gt;}&lt;/b&gt;&lt;/span&gt;&lt;div style=&quot;font-size: 15px;&quot;&gt;&lt;br&gt;&lt;/div&gt;&lt;/div&gt;&lt;/div&gt;" style="rounded=0;whiteSpace=wrap;html=1;labelBackgroundColor=none;fillColor=#FAD9D5;strokeColor=#D0CEE2;fontColor=#1A1A1A;textShadow=0;labelBorderColor=none;" vertex="1" parent="1">
          <mxGeometry x="1096" y="817.12" width="220.5" height="226" as="geometry" />
        </mxCell>
        <mxCell id="15tGHbZUR9IdJpPOJWv5-33" value="&lt;span style=&quot;font-size: 15px;&quot;&gt;&lt;b&gt;class ECommerceInformation implements EcommerceSiteInterfaces{&lt;/b&gt;&lt;/span&gt;&lt;div&gt;&lt;span style=&quot;font-size: 15px;&quot;&gt;&lt;b&gt;//Flipkart Method Implementation&lt;/b&gt;&lt;/span&gt;&lt;/div&gt;&lt;div&gt;&lt;span style=&quot;font-size: 15px;&quot;&gt;&lt;b&gt;//Amzon Method Implementation&lt;/b&gt;&lt;/span&gt;&lt;/div&gt;&lt;div&gt;&lt;span style=&quot;font-size: 15px;&quot;&gt;&lt;b&gt;//abstract method Implementation&lt;/b&gt;&lt;/span&gt;&lt;/div&gt;&lt;div&gt;&lt;span style=&quot;font-size: 15px;&quot;&gt;&lt;b&gt;WelcomeCategoryMessage()&lt;/b&gt;&lt;/span&gt;&lt;/div&gt;&lt;div&gt;&lt;span style=&quot;font-size: 15px;&quot;&gt;&lt;b&gt;//Payments Interface methodsImpl&lt;/b&gt;&lt;/span&gt;&lt;/div&gt;&lt;div&gt;&lt;span style=&quot;font-size: 15px;&quot;&gt;&lt;b&gt;TotalAmountToBePaid()&lt;/b&gt;&lt;/span&gt;&lt;/div&gt;&lt;div&gt;&lt;span style=&quot;font-size: 15px;&quot;&gt;&lt;b&gt;MakePayment()&lt;/b&gt;&lt;/span&gt;&lt;/div&gt;&lt;div&gt;&lt;span style=&quot;font-size: 15px;&quot;&gt;&lt;b&gt;//ReportModuleInterface MethodsImpl&lt;/b&gt;&lt;/span&gt;&lt;/div&gt;&lt;div&gt;&lt;span style=&quot;font-size: 15px;&quot;&gt;&lt;b&gt;//implementing Normal Methods&lt;/b&gt;&lt;/span&gt;&lt;/div&gt;&lt;div&gt;&lt;span style=&quot;font-size: 15px;&quot;&gt;&lt;b&gt;//Object Creation For main method&lt;/b&gt;&lt;/span&gt;&lt;/div&gt;&lt;div&gt;&lt;span style=&quot;font-size: 15px;&quot;&gt;&lt;b&gt;//through Refernce Call the methods&lt;/b&gt;&lt;/span&gt;&lt;/div&gt;&lt;div&gt;&lt;span style=&quot;font-size: 15px;&quot;&gt;&lt;b&gt;&lt;br&gt;&lt;/b&gt;&lt;/span&gt;&lt;/div&gt;&lt;div&gt;&lt;div&gt;&lt;span style=&quot;font-size: 15px;&quot;&gt;&lt;b&gt;}&lt;/b&gt;&lt;/span&gt;&lt;/div&gt;&lt;/div&gt;" style="rounded=0;whiteSpace=wrap;html=1;labelBackgroundColor=none;fillColor=#FAD9D5;strokeColor=#D0CEE2;fontColor=#1A1A1A;textShadow=0;labelBorderColor=none;" vertex="1" parent="1">
          <mxGeometry x="1786" y="790.12" width="291" height="570" as="geometry" />
        </mxCell>
        <mxCell id="15tGHbZUR9IdJpPOJWv5-35" value="&lt;b&gt;&lt;font style=&quot;font-size: 20px;&quot;&gt;CategorysAbstractclass&lt;/font&gt;&lt;/b&gt;" style="text;html=1;align=center;verticalAlign=middle;resizable=0;points=[];autosize=1;strokeColor=none;fillColor=none;rounded=0;labelBackgroundColor=none;fontColor=#1A1A1A;textShadow=0;labelBorderColor=none;" vertex="1" parent="1">
          <mxGeometry x="731" y="1010.12" width="247" height="36" as="geometry" />
        </mxCell>
        <mxCell id="15tGHbZUR9IdJpPOJWv5-36" value="&lt;b&gt;&lt;font style=&quot;font-size: 20px;&quot;&gt;PaymentInterface&lt;/font&gt;&lt;/b&gt;" style="text;html=1;align=center;verticalAlign=middle;resizable=0;points=[];autosize=1;strokeColor=none;fillColor=none;rounded=0;labelBackgroundColor=none;fontColor=#1A1A1A;textShadow=0;labelBorderColor=none;" vertex="1" parent="1">
          <mxGeometry x="1127.63" y="1040.12" width="185" height="36" as="geometry" />
        </mxCell>
        <mxCell id="15tGHbZUR9IdJpPOJWv5-37" value="&lt;b&gt;&lt;font style=&quot;font-size: 20px;&quot;&gt;ECommercreInformation&lt;/font&gt;&lt;/b&gt;" style="text;html=1;align=center;verticalAlign=middle;resizable=0;points=[];autosize=1;strokeColor=none;fillColor=none;" vertex="1" parent="1">
          <mxGeometry x="1831" y="1364" width="260" height="40" as="geometry" />
        </mxCell>
        <mxCell id="15tGHbZUR9IdJpPOJWv5-38" value="" style="endArrow=classic;html=1;rounded=0;strokeColor=#000000;fontColor=#1A1A1A;strokeWidth=2;textShadow=0;labelBorderColor=none;labelBackgroundColor=none;" edge="1" parent="1">
          <mxGeometry width="50" height="50" relative="1" as="geometry">
            <mxPoint x="1200" y="718.12" as="sourcePoint" />
            <mxPoint x="1199.69" y="818.12" as="targetPoint" />
          </mxGeometry>
        </mxCell>
        <mxCell id="15tGHbZUR9IdJpPOJWv5-51" value="" style="endArrow=classic;html=1;rounded=0;exitX=0.491;exitY=0.894;exitDx=0;exitDy=0;exitPerimeter=0;strokeWidth=2;" edge="1" parent="1">
          <mxGeometry width="50" height="50" relative="1" as="geometry">
            <mxPoint x="476.0000000000002" y="1036.12" as="sourcePoint" />
            <mxPoint x="1778" y="1242.12" as="targetPoint" />
            <Array as="points">
              <mxPoint x="478.43000000000006" y="1240.3600000000001" />
            </Array>
          </mxGeometry>
        </mxCell>
        <mxCell id="15tGHbZUR9IdJpPOJWv5-93" value="&lt;b&gt;&lt;font style=&quot;font-size: 15px;&quot;&gt;Implements&lt;/font&gt;&lt;/b&gt;" style="edgeLabel;html=1;align=center;verticalAlign=middle;resizable=0;points=[];" vertex="1" connectable="0" parent="15tGHbZUR9IdJpPOJWv5-51">
          <mxGeometry x="0.8485" y="1" relative="1" as="geometry">
            <mxPoint as="offset" />
          </mxGeometry>
        </mxCell>
        <mxCell id="15tGHbZUR9IdJpPOJWv5-53" value="" style="endArrow=classic;html=1;rounded=0;entryX=-0.008;entryY=0.659;entryDx=0;entryDy=0;entryPerimeter=0;strokeWidth=2;" edge="1" parent="1" target="15tGHbZUR9IdJpPOJWv5-33">
          <mxGeometry width="50" height="50" relative="1" as="geometry">
            <mxPoint x="832" y="1043.12" as="sourcePoint" />
            <mxPoint x="1875.1" y="1162.12" as="targetPoint" />
            <Array as="points">
              <mxPoint x="832" y="1083.12" />
              <mxPoint x="832" y="1163.12" />
            </Array>
          </mxGeometry>
        </mxCell>
        <mxCell id="15tGHbZUR9IdJpPOJWv5-54" value="&lt;b&gt;&lt;font style=&quot;font-size: 15px;&quot;&gt;extends&lt;/font&gt;&lt;/b&gt;" style="edgeLabel;html=1;align=center;verticalAlign=middle;resizable=0;points=[];" vertex="1" connectable="0" parent="15tGHbZUR9IdJpPOJWv5-53">
          <mxGeometry x="0.0841" y="2" relative="1" as="geometry">
            <mxPoint as="offset" />
          </mxGeometry>
        </mxCell>
        <mxCell id="15tGHbZUR9IdJpPOJWv5-62" value="&lt;b&gt;&lt;br&gt;&lt;/b&gt;&lt;div&gt;&lt;div&gt;&lt;span style=&quot;font-size: 15px;&quot;&gt;&lt;b&gt;ReportInterface(){&lt;/b&gt;&lt;/span&gt;&lt;/div&gt;&lt;div&gt;&lt;span style=&quot;font-size: 15px;&quot;&gt;&lt;b&gt;Invoice()&lt;/b&gt;&lt;/span&gt;&lt;/div&gt;&lt;div&gt;&lt;span style=&quot;font-size: 15px;&quot;&gt;&lt;b&gt;SummaryOfOrdersAndPayments()&lt;/b&gt;&lt;/span&gt;&lt;/div&gt;&lt;div&gt;&lt;span style=&quot;font-size: 15px;&quot;&gt;&lt;b&gt;}&lt;br&gt;&lt;/b&gt;&lt;/span&gt;&lt;div style=&quot;font-size: 15px;&quot;&gt;&lt;br&gt;&lt;/div&gt;&lt;/div&gt;&lt;/div&gt;" style="rounded=0;whiteSpace=wrap;html=1;labelBackgroundColor=none;fillColor=#FAD9D5;strokeColor=#D0CEE2;fontColor=#1A1A1A;textShadow=0;labelBorderColor=none;" vertex="1" parent="1">
          <mxGeometry x="1448" y="810.12" width="226" height="230" as="geometry" />
        </mxCell>
        <mxCell id="15tGHbZUR9IdJpPOJWv5-64" value="&lt;b&gt;&lt;font style=&quot;font-size: 20px;&quot;&gt;ReportInterface&lt;/font&gt;&lt;/b&gt;" style="text;html=1;align=center;verticalAlign=middle;resizable=0;points=[];autosize=1;strokeColor=none;fillColor=none;rounded=0;labelBackgroundColor=none;fontColor=#1A1A1A;textShadow=0;labelBorderColor=none;" vertex="1" parent="1">
          <mxGeometry x="1481" y="1038" width="166" height="36" as="geometry" />
        </mxCell>
        <mxCell id="15tGHbZUR9IdJpPOJWv5-68" value="" style="endArrow=classic;html=1;rounded=0;strokeColor=#000000;fontColor=#1A1A1A;strokeWidth=2;textShadow=0;labelBorderColor=none;labelBackgroundColor=none;exitX=0.531;exitY=0.758;exitDx=0;exitDy=0;exitPerimeter=0;entryX=0.5;entryY=0;entryDx=0;entryDy=0;" edge="1" parent="1">
          <mxGeometry width="50" height="50" relative="1" as="geometry">
            <mxPoint x="843.6189999999997" y="724.0920000000002" as="sourcePoint" />
            <mxPoint x="843.5" y="842.12" as="targetPoint" />
          </mxGeometry>
        </mxCell>
        <mxCell id="15tGHbZUR9IdJpPOJWv5-71" value="" style="endArrow=classic;html=1;rounded=0;exitX=0.5;exitY=0;exitDx=0;exitDy=0;exitPerimeter=0;entryX=0.464;entryY=-0.005;entryDx=0;entryDy=0;entryPerimeter=0;strokeWidth=2;" edge="1" parent="1" source="15tGHbZUR9IdJpPOJWv5-26" target="15tGHbZUR9IdJpPOJWv5-33">
          <mxGeometry width="50" height="50" relative="1" as="geometry">
            <mxPoint x="1669" y="800.12" as="sourcePoint" />
            <mxPoint x="1719" y="750.12" as="targetPoint" />
          </mxGeometry>
        </mxCell>
        <mxCell id="15tGHbZUR9IdJpPOJWv5-80" value="" style="endArrow=classic;html=1;rounded=0;strokeColor=#000000;fontColor=#1A1A1A;strokeWidth=2;textShadow=0;labelBorderColor=none;labelBackgroundColor=none;" edge="1" parent="1">
          <mxGeometry width="50" height="50" relative="1" as="geometry">
            <mxPoint x="1565" y="720.12" as="sourcePoint" />
            <mxPoint x="1565" y="809.12" as="targetPoint" />
          </mxGeometry>
        </mxCell>
        <mxCell id="15tGHbZUR9IdJpPOJWv5-81" value="" style="endArrow=none;html=1;rounded=0;elbow=vertical;labelBackgroundColor=none;strokeColor=#09555B;fontColor=default;entryX=0.702;entryY=0.925;entryDx=0;entryDy=0;entryPerimeter=0;strokeWidth=2;" edge="1" parent="1">
          <mxGeometry width="50" height="50" relative="1" as="geometry">
            <mxPoint x="544" y="1105.12" as="sourcePoint" />
            <mxPoint x="543.54" y="1043.12" as="targetPoint" />
          </mxGeometry>
        </mxCell>
        <mxCell id="15tGHbZUR9IdJpPOJWv5-82" value="" style="endArrow=none;html=1;rounded=0;elbow=vertical;labelBackgroundColor=none;strokeColor=#09555B;fontColor=default;strokeWidth=2;" edge="1" parent="1">
          <mxGeometry width="50" height="50" relative="1" as="geometry">
            <mxPoint x="544" y="1108.12" as="sourcePoint" />
            <mxPoint x="1246" y="1108.12" as="targetPoint" />
          </mxGeometry>
        </mxCell>
        <mxCell id="15tGHbZUR9IdJpPOJWv5-83" value="&lt;font style=&quot;font-size: 15px;&quot;&gt;&lt;b&gt;extends&lt;/b&gt;&lt;/font&gt;" style="edgeLabel;html=1;align=center;verticalAlign=middle;resizable=0;points=[];rounded=0;labelBackgroundColor=none;fontColor=#1A1A1A;" vertex="1" connectable="0" parent="15tGHbZUR9IdJpPOJWv5-82">
          <mxGeometry x="-0.1121" y="1" relative="1" as="geometry">
            <mxPoint x="40" y="-9" as="offset" />
          </mxGeometry>
        </mxCell>
        <mxCell id="15tGHbZUR9IdJpPOJWv5-85" value="" style="endArrow=classic;html=1;rounded=0;strokeWidth=2;" edge="1" parent="1">
          <mxGeometry width="50" height="50" relative="1" as="geometry">
            <mxPoint x="1245" y="1109.12" as="sourcePoint" />
            <mxPoint x="1245" y="1067" as="targetPoint" />
          </mxGeometry>
        </mxCell>
        <mxCell id="15tGHbZUR9IdJpPOJWv5-91" value="" style="endArrow=classic;html=1;rounded=1;exitX=0.498;exitY=0.981;exitDx=0;exitDy=0;exitPerimeter=0;strokeWidth=2;curved=0;" edge="1" parent="1" source="15tGHbZUR9IdJpPOJWv5-64">
          <mxGeometry width="50" height="50" relative="1" as="geometry">
            <mxPoint x="1564" y="1084.12" as="sourcePoint" />
            <mxPoint x="1564" y="1242.12" as="targetPoint" />
          </mxGeometry>
        </mxCell>
        <mxCell id="15tGHbZUR9IdJpPOJWv5-94" value="&lt;b&gt;&lt;br&gt;&lt;/b&gt;&lt;div&gt;&lt;div&gt;&lt;span style=&quot;font-size: 15px;&quot;&gt;&lt;b&gt;CreateAccount(){&lt;/b&gt;&lt;/span&gt;&lt;/div&gt;&lt;div&gt;&lt;span style=&quot;font-size: 15px;&quot;&gt;&lt;b&gt;//CreateAccountSuperClass&lt;/b&gt;&lt;/span&gt;&lt;/div&gt;&lt;div&gt;&lt;span style=&quot;font-size: 15px;&quot;&gt;&lt;b&gt;Costructor&lt;/b&gt;&lt;/span&gt;&lt;/div&gt;&lt;div&gt;&lt;span style=&quot;font-size: 15px;&quot;&gt;&lt;b&gt;}&lt;/b&gt;&lt;/span&gt;&lt;/div&gt;&lt;div&gt;&lt;span style=&quot;font-size: 15px;&quot;&gt;&lt;b&gt;SignInLogInPage(){&lt;/b&gt;&lt;/span&gt;&lt;/div&gt;&lt;div&gt;&lt;span style=&quot;font-size: 15px;&quot;&gt;&lt;b&gt;//Base Class Constructor&lt;/b&gt;&lt;/span&gt;&lt;/div&gt;&lt;div&gt;&lt;span style=&quot;font-size: 15px;&quot;&gt;&lt;b&gt;//Super()&lt;/b&gt;&lt;/span&gt;&lt;/div&gt;&lt;div&gt;&lt;span style=&quot;font-size: 15px;&quot;&gt;&lt;b&gt;Loginpage(){&lt;/b&gt;&lt;/span&gt;&lt;/div&gt;&lt;div&gt;&lt;span style=&quot;font-size: 15px;&quot;&gt;&lt;b&gt;//normal method Implemetation&lt;/b&gt;&lt;/span&gt;&lt;/div&gt;&lt;div&gt;&lt;span style=&quot;font-size: 15px;&quot;&gt;&lt;b&gt;}&lt;/b&gt;&lt;/span&gt;&lt;/div&gt;&lt;div&gt;&lt;span style=&quot;font-size: 15px;&quot;&gt;&lt;b&gt;}&lt;/b&gt;&lt;/span&gt;&lt;/div&gt;&lt;div&gt;&lt;div style=&quot;font-size: 15px;&quot;&gt;&lt;br&gt;&lt;/div&gt;&lt;/div&gt;&lt;/div&gt;" style="rounded=0;whiteSpace=wrap;html=1;labelBackgroundColor=none;fillColor=#FAD9D5;strokeColor=#D0CEE2;fontColor=#1A1A1A;textShadow=0;labelBorderColor=none;" vertex="1" parent="1">
          <mxGeometry x="1086.63" y="430.9999999999999" width="226" height="230" as="geometry" />
        </mxCell>
        <mxCell id="15tGHbZUR9IdJpPOJWv5-96" value="&lt;b&gt;&lt;font style=&quot;font-size: 20px;&quot;&gt;SignInLogInPage&lt;/font&gt;&lt;/b&gt;" style="text;html=1;align=center;verticalAlign=middle;resizable=0;points=[];autosize=1;strokeColor=none;fillColor=none;rounded=0;labelBackgroundColor=none;fontColor=#1A1A1A;textShadow=0;labelBorderColor=none;" vertex="1" parent="1">
          <mxGeometry x="1107" y="636" width="181" height="36" as="geometry" />
        </mxCell>
        <mxCell id="15tGHbZUR9IdJpPOJWv5-108" value="" style="endArrow=classic;html=1;rounded=0;strokeWidth=2;" edge="1" parent="1">
          <mxGeometry width="50" height="50" relative="1" as="geometry">
            <mxPoint x="1317" y="539" as="sourcePoint" />
            <mxPoint x="1957" y="790" as="targetPoint" />
            <Array as="points">
              <mxPoint x="1957" y="539" />
            </Array>
          </mxGeometry>
        </mxCell>
        <mxCell id="15tGHbZUR9IdJpPOJWv5-109" value="HAS-A" style="edgeLabel;html=1;align=center;verticalAlign=middle;resizable=0;points=[];fontStyle=1;fontSize=15;" vertex="1" connectable="0" parent="15tGHbZUR9IdJpPOJWv5-108">
          <mxGeometry x="-0.3027" y="5" relative="1" as="geometry">
            <mxPoint x="-1" as="offset" />
          </mxGeometry>
        </mxCell>
      </root>
    </mxGraphModel>
  </diagram>
</mxfile>
